<?xml version="1.0" encoding="UTF-8"?>
<svg width="24px" height="24px" viewBox="0 0 24 24" version="1.1" xmlns="http://www.w3.org/2000/svg" xmlns:xlink="http://www.w3.org/1999/xlink">
    <!-- Generator: Sketch 60.1 (88133) - https://sketch.com -->
    <title>icon/logos/github_24px_rounded</title>
    <desc>Created with Sketch.</desc>
    <defs>
        <path id="github" d="M12,2 C6.46857143,2 2,6.46857143 2,12 C2,16.4057143 4.87571429,20.1571429 8.84285714,21.5 C9.34285714,21.5942857 9.53142857,21.2814286 9.53142857,21.0314286 L9.53142857,19.3442857 C6.75,19.9371429 6.15571429,18 6.15571429,18 C5.68714286,16.8428571 5.03142857,16.5314286 5.03142857,16.5314286 C4.12571429,15.9057143 5.09428571,15.9371429 5.09428571,15.9371429 C6.09428571,16 6.62428571,16.9685714 6.62428571,16.9685714 C7.53142857,18.5 8.96857143,18.0628571 9.53142857,17.8114286 C9.62571429,17.1557143 9.87428571,16.7185714 10.1557143,16.4685714 C7.93714286,16.2185714 5.59428571,15.3442857 5.59428571,11.5314286 C5.59428571,10.4371429 5.96857143,9.56285714 6.62428571,8.84428571 C6.53142857,8.59428571 6.18714286,7.56285714 6.71857143,6.18714286 C6.71857143,6.18714286 7.56142857,5.90571429 9.46857143,7.21857143 C10.2833025,6.99533737 11.1238222,6.88006609 11.9685714,6.87571429 C12.8114286,6.87571429 13.6871429,7 14.4685714,7.21857143 C16.3757143,5.93714286 17.2185714,6.18714286 17.2185714,6.18714286 C17.75,7.56285714 17.4057143,8.59428571 17.3128571,8.84428571 C17.97,9.53 18.3442857,10.4371429 18.3442857,11.53 C18.3442857,15.3742857 16,16.2185714 13.7814286,16.4685714 C14.1242857,16.7814286 14.4685714,17.3742857 14.4685714,18.3114286 L14.4685714,21.0628571 C14.4685714,21.3442857 14.6557143,21.6557143 15.1557143,21.5314286 C19.1257143,20.1557143 22,16.4057143 22,12 C22,6.46857143 17.5314286,2 12,2 Z"></path>
    </defs>
    <g id="icon/logos/github_24px" stroke="none" stroke-width="1" fill="none" fill-rule="evenodd">
        <mask id="mask-github" fill="white">
            <use xlink:href="#github"></use>
        </mask>
        <g id="icon/toggle/radio_button_unchecked_24px" fill-rule="nonzero"></g>
        <g id="black" mask="url(#mask-github)" fill="#000000" fill-opacity="0.54">
            <rect id="Rectangle" x="0" y="0" width="24" height="24"></rect>
        </g>
    </g>
</svg>