<?xml version="1.0" encoding="UTF-8"?>
<svg width="24px" height="24px" viewBox="0 0 24 24" version="1.1" xmlns="http://www.w3.org/2000/svg" xmlns:xlink="http://www.w3.org/1999/xlink">
    <!-- Generator: Sketch 60.1 (88133) - https://sketch.com -->
    <title>icon/logos/gitlab_24px_rounded</title>
    <desc>Created with Sketch.</desc>
    <defs>
        <path id="gitlab" d="M22.6971429,13.1968254 L21.568254,9.72825397 C21.5622697,9.69631479 21.5531242,9.66504986 21.5409524,9.63492063 L19.2761905,2.66349206 C19.152431,2.29455287 18.8056423,2.04688326 18.4165079,2.0495029 C18.0281939,2.04716922 17.6836962,2.29820458 17.5669841,2.66857143 L15.408254,9.31174603 L8.59492063,9.31174603 L6.43301587,2.66857143 C6.31672136,2.29955228 5.97421124,2.04884105 5.58730159,2.0495029 L5.58222222,2.0495029 C5.1927576,2.0495029 4.84723212,2.29939369 4.72507937,2.66920635 L2.4584127,9.64888889 C2.4584127,9.6552381 2.45333333,9.66031746 2.45142857,9.66666667 L1.30222222,13.1974603 C1.12897554,13.7287142 1.31796935,14.3110818 1.77015873,14.6393651 L11.6990476,21.8539683 C11.8783707,21.9837708 12.1211081,21.9824865 12.2990476,21.8507937 L12.2990476,21.8507937 L22.2298413,14.6393651 C22.6822431,14.3109465 22.8710427,13.7281304 22.6971429,13.1968254 Z M7.85587302,10.3314286 L10.6234921,18.8495238 L3.97968254,10.3314286 L7.85587302,10.3314286 Z M13.3796825,18.8514286 L16.0336508,10.6850794 L16.1479365,10.3314286 L20.0273016,10.3314286 L14.0165079,18.031746 L13.3796825,18.8514286 Z M18.4253968,3.32253968 L20.3701587,9.31174603 L16.4774603,9.31174603 L18.4253968,3.32253968 Z M15.0787302,10.327619 L13.1504762,16.2615873 L12,19.7955556 L8.92571429,10.327619 L15.0787302,10.327619 Z M5.57777778,3.32253968 L7.52634921,9.31174603 L3.63619048,9.31174603 L5.57777778,3.32253968 Z M2.36761905,13.8177778 C2.27153057,13.7478967 2.23151298,13.6239961 2.26857143,13.5111111 L3.12190476,10.8888889 L9.38031746,18.912381 L2.36761905,13.8177778 Z M21.6330159,13.8177778 L14.6196825,18.9104762 L14.6431746,18.88 L20.8780952,10.8888889 L21.7314286,13.5098413 C21.7689301,13.6227771 21.7291471,13.7470027 21.6330159,13.8171429 L21.6330159,13.8177778 Z"></path>
    </defs>
    <g id="icon/logos/gitlab_24px" stroke="none" stroke-width="1" fill="none" fill-rule="evenodd">
        <mask id="mask-gitlab" fill="white">
            <use xlink:href="#gitlab"></use>
        </mask>
        <g id="icon/toggle/radio_button_unchecked_24px" fill-rule="nonzero"></g>
        <g id="black" mask="url(#mask-gitlab)" fill="#000000" fill-opacity="0.54">
            <rect id="Rectangle" x="0" y="0" width="24" height="24"></rect>
        </g>
    </g>
</svg>